<mxfile host="app.diagrams.net" modified="2024-01-02T10:15:23.761Z" agent="Mozilla/5.0 (Windows NT 10.0; Win64; x64; rv:109.0) Gecko/20100101 Firefox/115.0" version="22.1.16" etag="O7iINxAGQdtSKyGbNXjf" type="github">
  <diagram name="Page-1" id="5hCaBKJQKaHlafJ9qVmC">
    <mxGraphModel>
      <root>
        <mxCell id="0" />
        <mxCell id="1" parent="0" />
      </root>
    </mxGraphModel>
  </diagram>
</mxfile>
